<?xml version="1.0" standalone="no"?>
<!DOCTYPE svg PUBLIC "-//W3C//DTD SVG 20010904//EN"
 "http://www.w3.org/TR/2001/REC-SVG-20010904/DTD/svg10.dtd">
<svg version="1.0" xmlns="http://www.w3.org/2000/svg"
 width="394.000000pt" height="394.000000pt" viewBox="0 0 394.000000 394.000000"
 preserveAspectRatio="xMidYMid meet">

<g transform="translate(0.000000,394.000000) scale(0.100000,-0.100000)"
fill="#000000" stroke="none">
<path d="M2566 3085 c-15 -14 -33 -40 -41 -59 -13 -31 -20 -35 -65 -41 -88
-12 -141 -67 -117 -122 5 -12 18 -23 28 -26 16 -4 17 -9 6 -36 -23 -61 27
-105 99 -87 30 8 64 44 64 69 0 10 9 30 20 44 11 14 20 36 20 48 0 28 15 41
61 49 48 9 67 32 67 85 1 34 -3 44 -18 48 -10 3 -20 15 -22 27 -5 33 -66 35
-102 1z"/>
<path d="M1006 2928 c-13 -20 -9 -123 29 -863 25 -462 45 -843 45 -847 0 -4 7
-14 16 -22 14 -14 74 -16 518 -16 377 0 505 3 514 12 16 16 15 75 -8 532 -25
496 -28 536 -44 536 -10 0 -12 -19 -9 -72 34 -593 49 -974 39 -980 -16 -11
-968 -9 -985 1 -11 7 -23 181 -57 842 -24 459 -43 842 -44 852 0 16 30 17 499
17 275 0 502 -4 505 -9 3 -4 12 -138 21 -296 9 -159 18 -291 20 -294 20 -19
22 40 10 264 -8 138 -14 267 -15 288 0 23 -7 44 -20 57 -19 19 -33 20 -520 20
l-500 0 -14 -22z"/>
<path d="M1037 2903 c-3 -5 15 -381 39 -838 24 -456 43 -833 44 -837 0 -5 221
-8 490 -8 l490 0 0 51 c0 63 -37 806 -46 906 l-6 71 -76 7 c-100 8 -122 17
-122 51 0 24 2 26 33 19 57 -12 149 -17 157 -8 8 8 -16 554 -25 581 -3 9 -110
12 -489 12 -267 0 -487 -3 -489 -7z m625 -121 c144 -71 213 -239 158 -384 -28
-76 -100 -142 -178 -164 -182 -53 -374 81 -389 271 -10 122 42 219 147 273 60
31 71 34 140 30 52 -2 89 -10 122 -26z m319 -872 c3 -36 3 -71 1 -77 -3 -10
-93 -13 -402 -13 -452 0 -410 -10 -410 96 l0 64 403 -2 402 -3 6 -65z m6 -207
c4 -9 7 -46 7 -82 l1 -66 -400 0 -400 0 -9 68 c-6 49 -5 71 4 82 11 13 69 15
402 15 356 0 389 -1 395 -17z"/>
<path d="M1504 2690 c-39 -16 -66 -61 -60 -100 13 -83 110 -118 167 -61 48 49
30 129 -36 157 -39 16 -42 16 -71 4z"/>
<path d="M1445 2447 c-94 -31 -104 -49 -52 -93 74 -62 181 -82 254 -47 34 16
103 79 103 93 0 4 -24 18 -52 30 -65 28 -193 37 -253 17z"/>
<path d="M1340 1914 c-10 -11 -10 -17 0 -28 15 -19 40 -10 40 14 0 24 -25 33
-40 14z"/>
<path d="M1250 1901 c0 -24 25 -34 40 -16 15 18 5 35 -21 35 -12 0 -19 -7 -19
-19z"/>
<path d="M1414 1908 c-8 -12 24 -40 37 -32 5 3 9 14 9 25 0 21 -34 27 -46 7z"/>
<path d="M1500 1901 c0 -24 25 -34 40 -16 15 18 5 35 -21 35 -12 0 -19 -7 -19
-19z"/>
<path d="M1264 1646 c-8 -21 3 -36 27 -36 15 0 20 6 17 22 -4 27 -35 37 -44
14z"/>
<path d="M1353 1649 c-15 -15 -5 -39 17 -39 22 0 32 24 17 39 -6 6 -14 11 -17
11 -3 0 -11 -5 -17 -11z"/>
<path d="M1434 1645 c-7 -18 3 -35 21 -35 21 0 28 19 15 35 -16 19 -29 19 -36
0z"/>
<path d="M1514 1645 c-4 -9 -2 -21 4 -27 15 -15 44 -1 40 19 -4 23 -36 29 -44
8z"/>
<path d="M1596 1645 c-8 -22 1 -35 25 -35 15 0 20 6 17 22 -4 27 -33 36 -42
13z"/>
<path d="M1687 1653 c-15 -14 -7 -43 12 -43 26 0 36 17 21 35 -14 16 -23 19
-33 8z"/>
<path d="M2335 2624 c-79 -13 -100 -24 -127 -66 -26 -41 -26 -43 -10 -71 9
-16 27 -40 39 -53 21 -23 28 -54 47 -219 2 -16 -7 -100 -20 -185 -31 -201 -64
-463 -64 -513 0 -53 41 -233 101 -446 28 -96 48 -180 45 -188 -15 -39 21 -53
83 -32 31 11 41 35 22 55 -6 5 -17 68 -25 139 -20 168 -44 315 -62 388 -14 55
-14 61 12 147 15 50 29 89 31 86 17 -17 71 -540 76 -742 l3 -109 44 -3 c47 -4
79 19 61 42 -5 6 -4 106 2 226 7 151 7 287 0 455 -6 139 -8 301 -3 385 8 150
6 195 -12 243 -8 20 -15 26 -27 21 -57 -25 -119 -11 -148 32 -23 35 -21 127 4
204 15 47 22 56 48 61 27 6 28 7 5 8 -14 0 -31 10 -37 20 -23 37 29 52 75 22
11 -7 11 -12 1 -28 -11 -18 -8 -27 16 -66 31 -48 45 -52 45 -12 0 17 4 23 15
19 15 -6 75 51 75 71 0 5 -9 28 -19 51 -15 33 -25 42 -52 48 -46 9 -207 15
-244 10z"/>
<path d="M2429 783 c-9 -2 -37 -28 -63 -59 -36 -41 -44 -55 -32 -60 8 -3 24 0
36 6 16 9 25 9 33 1 6 -6 47 -11 94 -11 77 0 83 1 83 21 0 37 -19 59 -51 59
-22 0 -32 6 -41 25 -11 24 -24 28 -59 18z"/>
</g>
</svg>
